HIERARCHY
ROOT hip
{
	OFFSET 0.000000 0.000000 0.000000 
	CHANNELS 6 Xposition Yposition Zposition Xrotation Zrotation Yrotation
	JOINT abdomen
	{
		OFFSET 0.000000 3.402643 0.000000 
		CHANNELS 3 Xrotation Zrotation Yrotation
		JOINT chest
		{
			OFFSET 0.000000 8.438565 -0.680529 
			CHANNELS 3 Xrotation Zrotation Yrotation
			JOINT neck
			{
				OFFSET 0.000000 10.207942 -0.272212 
				CHANNELS 3 Xrotation Zrotation Yrotation
				JOINT head
				{
					OFFSET 0.000000 3.130431 0.000000 
					CHANNELS 3 Xrotation Zrotation Yrotation
					End Site
					{
						OFFSET 0.000000 3.130435 0.000000 
					}
				}
			}
			JOINT lCollar
			{
				OFFSET 3.470700 6.669187 -0.816635 
				CHANNELS 3 Yrotation Zrotation Xrotation
				JOINT lShldr
				{
					OFFSET 3.198488 0.000000 0.000000 
					CHANNELS 3 Zrotation Yrotation Xrotation
					JOINT lForeArm
					{
						OFFSET 10.139888 0.000000 0.000000 
						CHANNELS 3 Yrotation Zrotation Xrotation
						JOINT lHand
						{
							OFFSET 8.370511 0.000000 0.000000 
							CHANNELS 3 Zrotation Yrotation Xrotation
							End Site
							{
								OFFSET 4.083176 0.000000 0.000000 
							}
						}
					}
				}
			}
			JOINT rCollar
			{
				OFFSET -3.470700 6.669187 -0.816635 
				CHANNELS 3 Yrotation Zrotation Xrotation
				JOINT rShldr
				{
					OFFSET -3.198488 0.000000 0.000000 
					CHANNELS 3 Zrotation Yrotation Xrotation
					JOINT rForeArm
					{
						OFFSET -10.139888 0.000000 0.000000 
						CHANNELS 3 Yrotation Zrotation Xrotation
						JOINT rHand
						{
							OFFSET -8.370511 0.000000 0.000000 
							CHANNELS 3 Zrotation Yrotation Xrotation
							End Site
							{
								OFFSET -4.083176 0.000000 0.000000 
							}
						}
					}
				}
			}
		}
	}
	JOINT lThigh
	{
		OFFSET 5.308129 -1.633274 1.361059 
		CHANNELS 3 Xrotation Zrotation Yrotation
		JOINT lShin
		{
			OFFSET -2.041588 -20.007561 0.000000 
			CHANNELS 3 Xrotation Zrotation Yrotation
			JOINT lFoot
			{
				OFFSET 0.000000 -19.190928 -1.224953 
				CHANNELS 3 Xrotation Yrotation Zrotation
				End Site
				{
					OFFSET 0.000000 -2.449906 4.627600 
				}
			}
		}
	}
	JOINT rThigh
	{
		OFFSET -5.308129 -1.633274 1.361059 
		CHANNELS 3 Xrotation Zrotation Yrotation
		JOINT rShin
		{
			OFFSET 2.041588 -20.007561 0.000000 
			CHANNELS 3 Xrotation Zrotation Yrotation
			JOINT rFoot
			{
				OFFSET 0.000000 -19.190928 -1.224953 
				CHANNELS 3 Xrotation Yrotation Zrotation
				End Site
				{
					OFFSET 0.000000 -2.449906 4.627600 
				}
			}
		}
	}
}
MOTION
Frames: 8
Frame Time: 0.011111
39.145370 50.927040 -55.508934 0.158023 8.593318 0.171291 6.025783 -10.774127 -2.100253 -3.521737 3.027771 -0.353413 -14.957488 -3.720745 -0.725334 33.812538 3.050673 -1.582355 1.452834 -1.250150 0.768655 -70.110085 -37.974224 12.696921 -70.224243 10.090995 16.008410 6.992188 16.005859 131.037842 -6.408587 0.914528 1.823621 75.535789 28.551012 26.907097 70.580139 -10.073264 16.183197 -7.001954 -15.996095 55.654297 6.376698 -8.202771 -0.953493 20.406178 -5.321964 -1.389892 -13.131950 -8.889380 -2.750831 -26.817923 -11.598802 5.375716 30.586048 5.219472 2.256687 -18.206944 -10.212873 -2.579557 
39.111549 50.908020 -55.013088 0.365871 9.058500 0.663908 5.807390 -11.209895 -2.309514 -3.531563 3.242673 -0.412060 -14.892261 -3.960068 -0.797422 33.867840 3.191922 -1.762561 1.452834 -1.250150 0.768655 -70.036545 -38.453243 13.604539 -70.938942 10.037344 16.347485 6.992188 16.005859 131.819092 -6.408587 0.914528 1.823621 75.485352 28.731905 26.923296 71.422951 -10.004449 16.592621 -7.001954 -15.996095 55.732422 7.488787 -8.592147 -1.346870 19.190582 -5.320761 -1.282914 -12.500132 -8.847941 -2.696649 -26.976397 -11.990274 6.890923 27.927441 5.248846 2.038525 -19.012691 -11.913530 -3.191445 
39.084671 50.867855 -54.510601 0.534486 9.406740 0.839774 5.504303 -11.465502 -2.364936 -3.609856 3.398371 -0.435887 -14.896463 -4.169617 -0.710849 34.213051 3.228311 -1.606111 1.452834 -1.250150 0.768655 -69.785797 -38.913895 14.604925 -71.492767 9.988556 16.599556 6.992188 16.005859 133.166748 -6.408587 0.914528 1.823621 75.361160 28.791508 27.093628 72.219376 -9.921919 16.970823 -7.001954 -15.996095 55.537109 8.479424 -8.899352 -1.360355 18.228354 -5.305606 -1.193040 -12.052833 -8.972489 -2.661019 -27.301456 -12.147523 8.787994 25.750128 5.268670 1.838055 -20.535843 -12.932134 -3.877550 
39.058399 50.870571 -54.009922 0.761798 9.256137 0.934716 5.008364 -11.103261 -2.067849 -3.521797 3.320782 -0.372264 -14.817462 -4.150289 -0.761770 34.443741 3.109292 -1.723999 1.452834 -1.250150 0.768655 -69.233719 -39.708549 15.890053 -71.908691 9.949886 16.809752 6.992188 16.005859 134.690201 -6.408587 0.914528 1.823621 75.233681 29.184965 27.242140 72.621956 -9.874707 17.159967 -7.001954 -15.996095 55.673828 9.448426 -8.657970 -1.172260 16.899637 -5.305130 -1.081770 -11.483147 -9.062215 -2.607180 -27.473957 -11.785561 10.574401 23.757372 5.278580 1.672247 -22.169621 -13.644914 -4.556377 
39.020950 50.877216 -53.503803 0.940398 9.473540 1.230286 4.522295 -11.290068 -1.619103 -3.688014 3.114697 -0.254809 -14.252880 -3.887952 -1.109039 34.499081 3.098168 -2.344942 1.452834 -1.250150 0.768655 -71.388275 -40.553616 15.308262 -72.238464 9.915653 16.962135 6.992188 16.005859 131.994888 -6.408587 0.914528 1.823621 75.285042 29.465149 27.223064 72.738594 -9.860765 17.211563 -7.001954 -15.996095 56.113277 10.516083 -8.748773 -1.274279 15.679346 -5.292269 -0.992792 -11.016229 -9.170516 -2.594144 -27.738638 -11.903164 12.368629 22.168724 5.289269 1.542979 -23.670097 -14.561053 -5.315191 
38.975658 50.854259 -52.994968 1.120115 9.997331 1.757777 4.654690 -11.793032 -2.059944 -3.355502 3.224142 -0.353390 -15.786384 -3.773823 -1.075294 35.484001 2.909642 -2.374979 1.452834 -1.250150 0.768655 -69.699570 -38.211315 17.547518 -75.358307 9.455252 18.468931 6.992188 16.005859 135.666763 -6.408587 0.914528 1.823621 75.278320 30.829630 27.817446 73.026009 -9.827640 17.348595 -7.001954 -15.996095 56.240238 11.457098 -9.115250 -1.582626 14.863846 -5.283568 -0.891807 -10.465286 -9.422054 -2.592338 -28.110233 -12.459980 13.952081 20.841413 5.277595 1.419564 -24.724991 -15.402848 -5.935059 
38.923714 50.856079 -52.477383 1.119547 9.919587 2.244648 4.383550 -11.653467 -2.007133 -3.375058 3.126367 -0.354964 -15.089523 -3.689095 -1.231085 35.187271 3.064720 -2.592584 1.452834 -1.250150 0.768655 -70.482178 -41.321487 17.431040 -73.718681 9.724178 17.666914 6.992188 16.005859 134.045654 -6.408587 0.914528 1.823621 75.327278 30.992304 27.984982 73.659164 -9.739773 17.661299 -7.001954 -15.996095 56.318356 12.299728 -8.824764 -1.832219 14.233172 -5.272361 -0.865407 -9.754136 -9.569938 -2.537976 -28.049603 -12.381614 15.080072 19.920164 5.282755 1.324728 -25.923779 -15.518270 -6.410837 
38.858189 50.849430 -51.954357 0.949546 9.451134 2.589130 4.807858 -10.800714 -2.553620 -3.110986 3.246707 -0.505479 -16.278130 -3.899246 -0.988880 36.000088 2.642453 -2.359008 1.452834 -1.250150 0.768655 -69.793022 -41.306519 18.269588 -74.971565 9.526209 18.281469 6.992188 16.005859 135.998795 -6.408587 0.914528 1.823621 74.978920 32.591900 28.958851 73.796356 -9.719942 17.724819 -7.001954 -15.996095 56.435547 13.040222 -8.111373 -2.048476 13.891857 -5.262679 -0.831429 -9.262400 -9.621592 -2.482907 -27.650393 -11.815596 16.111694 19.341301 5.288360 1.293134 -27.231762 -15.382442 -6.870334 
